<svg width="106" height="134" viewBox="0 0 106 134" fill="none" xmlns="http://www.w3.org/2000/svg">
<g opacity="0.2">
<circle cx="102.263" cy="73.924" r="3.08414" transform="rotate(90 102.263 73.924)" fill="#397096"/>
<circle cx="102.264" cy="3.08414" r="3.08414" transform="rotate(90 102.264 3.08414)" fill="#78ACC6"/>
<circle cx="88.0951" cy="3.08414" r="3.08414" transform="rotate(90 88.0951 3.08414)" fill="#78ACC6"/>
<circle cx="73.9266" cy="3.08414" r="3.08414" transform="rotate(90 73.9266 3.08414)" fill="#78ACC6"/>
<circle cx="59.7581" cy="3.08414" r="3.08414" transform="rotate(90 59.7581 3.08414)" fill="#78ACC6"/>
<circle cx="45.5897" cy="3.08414" r="3.08414" transform="rotate(90 45.5897 3.08414)" fill="#78ACC6"/>
<circle cx="31.4212" cy="3.08414" r="3.08414" transform="rotate(90 31.4212 3.08414)" fill="#78ACC6"/>
<circle cx="17.2528" cy="3.08414" r="3.08414" transform="rotate(90 17.2528 3.08414)" fill="#78ACC6"/>
<circle cx="3.08432" cy="3.08414" r="3.08414" transform="rotate(90 3.08432 3.08414)" fill="#78ACC6"/>
<circle cx="102.264" cy="17.2521" r="3.08414" transform="rotate(90 102.264 17.2521)" fill="#78ACC6"/>
<circle cx="88.0951" cy="17.2521" r="3.08414" transform="rotate(90 88.0951 17.2521)" fill="#78ACC6"/>
<circle cx="73.9266" cy="17.2521" r="3.08414" transform="rotate(90 73.9266 17.2521)" fill="#78ACC6"/>
<circle cx="59.7581" cy="17.2521" r="3.08414" transform="rotate(90 59.7581 17.2521)" fill="#78ACC6"/>
<circle cx="45.5897" cy="17.2521" r="3.08414" transform="rotate(90 45.5897 17.2521)" fill="#78ACC6"/>
<circle cx="31.4212" cy="17.2521" r="3.08414" transform="rotate(90 31.4212 17.2521)" fill="#78ACC6"/>
<circle cx="17.2528" cy="17.2521" r="3.08414" transform="rotate(90 17.2528 17.2521)" fill="#78ACC6"/>
<circle cx="3.08432" cy="17.2521" r="3.08414" transform="rotate(90 3.08432 17.2521)" fill="#78ACC6"/>
<circle cx="102.264" cy="31.4201" r="3.08414" transform="rotate(90 102.264 31.4201)" fill="#78ACC6"/>
<circle cx="88.0951" cy="31.4201" r="3.08414" transform="rotate(90 88.0951 31.4201)" fill="#78ACC6"/>
<circle cx="73.9266" cy="31.4201" r="3.08414" transform="rotate(90 73.9266 31.4201)" fill="#78ACC6"/>
<circle cx="59.7581" cy="31.4201" r="3.08414" transform="rotate(90 59.7581 31.4201)" fill="#78ACC6"/>
<circle cx="45.5897" cy="31.4201" r="3.08414" transform="rotate(90 45.5897 31.4201)" fill="#78ACC6"/>
<circle cx="31.4212" cy="31.4201" r="3.08414" transform="rotate(90 31.4212 31.4201)" fill="#78ACC6"/>
<circle cx="17.2528" cy="31.4201" r="3.08414" transform="rotate(90 17.2528 31.4201)" fill="#78ACC6"/>
<circle cx="3.08432" cy="31.4201" r="3.08414" transform="rotate(90 3.08432 31.4201)" fill="#78ACC6"/>
<circle cx="102.264" cy="45.588" r="3.08414" transform="rotate(90 102.264 45.588)" fill="#78ACC6"/>
<circle cx="88.0951" cy="45.588" r="3.08414" transform="rotate(90 88.0951 45.588)" fill="#78ACC6"/>
<circle cx="73.9266" cy="45.588" r="3.08414" transform="rotate(90 73.9266 45.588)" fill="#78ACC6"/>
<circle cx="59.7581" cy="45.588" r="3.08414" transform="rotate(90 59.7581 45.588)" fill="#78ACC6"/>
<circle cx="45.5897" cy="45.588" r="3.08414" transform="rotate(90 45.5897 45.588)" fill="#78ACC6"/>
<circle cx="31.4212" cy="45.588" r="3.08414" transform="rotate(90 31.4212 45.588)" fill="#78ACC6"/>
<circle cx="17.2528" cy="45.588" r="3.08414" transform="rotate(90 17.2528 45.588)" fill="#78ACC6"/>
<circle cx="3.08432" cy="45.588" r="3.08414" transform="rotate(90 3.08432 45.588)" fill="#78ACC6"/>
<circle cx="102.264" cy="59.756" r="3.08414" transform="rotate(90 102.264 59.756)" fill="#397096"/>
<circle cx="88.0951" cy="59.756" r="3.08414" transform="rotate(90 88.0951 59.756)" fill="#397096"/>
<circle cx="73.9266" cy="59.756" r="3.08414" transform="rotate(90 73.9266 59.756)" fill="#78ACC6"/>
<circle cx="59.7581" cy="59.756" r="3.08414" transform="rotate(90 59.7581 59.756)" fill="#78ACC6"/>
<circle cx="45.5897" cy="59.756" r="3.08414" transform="rotate(90 45.5897 59.756)" fill="#78ACC6"/>
<circle cx="31.4212" cy="59.756" r="3.08414" transform="rotate(90 31.4212 59.756)" fill="#78ACC6"/>
<circle cx="17.2528" cy="59.756" r="3.08414" transform="rotate(90 17.2528 59.756)" fill="#78ACC6"/>
<circle cx="3.08432" cy="59.756" r="3.08414" transform="rotate(90 3.08432 59.756)" fill="#78ACC6"/>
<circle cx="88.0949" cy="73.924" r="3.08414" transform="rotate(90 88.0949 73.924)" fill="#397096"/>
<circle cx="73.9265" cy="73.924" r="3.08414" transform="rotate(90 73.9265 73.924)" fill="#397096"/>
<circle cx="59.758" cy="73.924" r="3.08414" transform="rotate(90 59.758 73.924)" fill="#397096"/>
<circle cx="45.5896" cy="73.924" r="3.08414" transform="rotate(90 45.5896 73.924)" fill="#397096"/>
<circle cx="31.4211" cy="73.924" r="3.08414" transform="rotate(90 31.4211 73.924)" fill="#397096"/>
<circle cx="17.2527" cy="73.924" r="3.08414" transform="rotate(90 17.2527 73.924)" fill="#397096"/>
<circle cx="3.0842" cy="73.924" r="3.08414" transform="rotate(90 3.0842 73.924)" fill="#397096"/>
<circle cx="102.263" cy="88.0919" r="3.08414" transform="rotate(90 102.263 88.0919)" fill="#397096"/>
<circle cx="88.0949" cy="88.0919" r="3.08414" transform="rotate(90 88.0949 88.0919)" fill="#397096"/>
<circle cx="73.9265" cy="88.0919" r="3.08414" transform="rotate(90 73.9265 88.0919)" fill="#397096"/>
<circle cx="59.758" cy="88.0919" r="3.08414" transform="rotate(90 59.758 88.0919)" fill="#397096"/>
<circle cx="45.5896" cy="88.0919" r="3.08414" transform="rotate(90 45.5896 88.0919)" fill="#397096"/>
<circle cx="31.4211" cy="88.0919" r="3.08414" transform="rotate(90 31.4211 88.0919)" fill="#397096"/>
<circle cx="17.2527" cy="88.0919" r="3.08414" transform="rotate(90 17.2527 88.0919)" fill="#397096"/>
<circle cx="3.0842" cy="88.0919" r="3.08414" transform="rotate(90 3.0842 88.0919)" fill="#397096"/>
<circle cx="102.263" cy="102.26" r="3.08414" transform="rotate(90 102.263 102.26)" fill="#397096"/>
<circle cx="88.0949" cy="102.26" r="3.08414" transform="rotate(90 88.0949 102.26)" fill="#397096"/>
<circle cx="73.9265" cy="102.26" r="3.08414" transform="rotate(90 73.9265 102.26)" fill="#397096"/>
<circle cx="59.758" cy="102.26" r="3.08414" transform="rotate(90 59.758 102.26)" fill="#397096"/>
<circle cx="45.5896" cy="102.26" r="3.08414" transform="rotate(90 45.5896 102.26)" fill="#397096"/>
<circle cx="31.4211" cy="102.26" r="3.08414" transform="rotate(90 31.4211 102.26)" fill="#397096"/>
<circle cx="17.2527" cy="102.26" r="3.08414" transform="rotate(90 17.2527 102.26)" fill="#397096"/>
<circle cx="3.0842" cy="102.26" r="3.08414" transform="rotate(90 3.0842 102.26)" fill="#397096"/>
<circle cx="102.263" cy="116.428" r="3.08414" transform="rotate(90 102.263 116.428)" fill="#397096"/>
<circle cx="88.0949" cy="116.428" r="3.08414" transform="rotate(90 88.0949 116.428)" fill="#397096"/>
<circle cx="73.9265" cy="116.428" r="3.08414" transform="rotate(90 73.9265 116.428)" fill="#397096"/>
<circle cx="59.758" cy="116.428" r="3.08414" transform="rotate(90 59.758 116.428)" fill="#397096"/>
<circle cx="45.5896" cy="116.428" r="3.08414" transform="rotate(90 45.5896 116.428)" fill="#397096"/>
<circle cx="31.4211" cy="116.428" r="3.08414" transform="rotate(90 31.4211 116.428)" fill="#397096"/>
<circle cx="17.2527" cy="116.428" r="3.08414" transform="rotate(90 17.2527 116.428)" fill="#397096"/>
<circle cx="3.0842" cy="116.428" r="3.08414" transform="rotate(90 3.0842 116.428)" fill="#397096"/>
<circle cx="102.263" cy="130.596" r="3.08414" transform="rotate(90 102.263 130.596)" fill="#397096"/>
<circle cx="88.0949" cy="130.596" r="3.08414" transform="rotate(90 88.0949 130.596)" fill="#397096"/>
<circle cx="73.9265" cy="130.596" r="3.08414" transform="rotate(90 73.9265 130.596)" fill="#397096"/>
<circle cx="59.758" cy="130.596" r="3.08414" transform="rotate(90 59.758 130.596)" fill="#397096"/>
<circle cx="45.5896" cy="130.596" r="3.08414" transform="rotate(90 45.5896 130.596)" fill="#397096"/>
<circle cx="31.4211" cy="130.596" r="3.08414" transform="rotate(90 31.4211 130.596)" fill="#397096"/>
<circle cx="17.2527" cy="130.596" r="3.08414" transform="rotate(90 17.2527 130.596)" fill="#397096"/>
<circle cx="3.0842" cy="130.596" r="3.08414" transform="rotate(90 3.0842 130.596)" fill="#397096"/>
</g>
</svg>
